<svg xmlns="http://www.w3.org/2000/svg" width="100" height="100" viewBox="0 0 100 100" fill="none">
  <rect width="100" height="100" rx="24" fill="#0a0a0a"/>
  <circle cx="20" cy="20" r="6" fill="#fff"/>
  <circle cx="35" cy="20" r="6" fill="#fff"/>
  <circle cx="50" cy="20" r="6" fill="#fff"/>
  <circle cx="65" cy="20" r="6" fill="#fff"/>
  <circle cx="80" cy="20" r="5" fill="#fff" opacity="0.12"/>
  <circle cx="20" cy="35" r="6" fill="#fff"/>
  <circle cx="35" cy="35" r="5" fill="#fff" opacity="0.12"/>
  <circle cx="50" cy="35" r="5" fill="#fff" opacity="0.12"/>
  <circle cx="65" cy="35" r="5" fill="#fff" opacity="0.12"/>
  <circle cx="80" cy="35" r="5" fill="#fff" opacity="0.12"/>
  <circle cx="20" cy="50" r="6" fill="#fff"/>
  <circle cx="35" cy="50" r="5" fill="#fff" opacity="0.12"/>
  <circle cx="50" cy="50" r="5" fill="#fff" opacity="0.12"/>
  <circle cx="65" cy="50" r="5" fill="#fff" opacity="0.12"/>
  <circle cx="80" cy="50" r="5" fill="#fff" opacity="0.12"/>
  <circle cx="20" cy="65" r="6" fill="#fff"/>
  <circle cx="35" cy="65" r="5" fill="#fff" opacity="0.12"/>
  <circle cx="50" cy="65" r="5" fill="#fff" opacity="0.12"/>
  <circle cx="65" cy="65" r="5" fill="#fff" opacity="0.12"/>
  <circle cx="80" cy="65" r="5" fill="#fff" opacity="0.12"/>
  <circle cx="20" cy="80" r="6" fill="#fff"/>
  <circle cx="35" cy="80" r="6" fill="#fff"/>
  <circle cx="50" cy="80" r="6" fill="#fff"/>
  <circle cx="65" cy="80" r="6" fill="#fff"/>
  <circle cx="80" cy="80" r="5" fill="#fff" opacity="0.12"/>
</svg>
